<svg id="SvgjsSvg1022" width="288" height="288" xmlns="http://www.w3.org/2000/svg" version="1.1" xmlns:xlink="http://www.w3.org/1999/xlink" xmlns:svgjs="http://svgjs.com/svgjs"><defs id="SvgjsDefs1023"></defs><g id="SvgjsG1024"><svg xmlns="http://www.w3.org/2000/svg" data-name="Layer 1" viewBox="0 0 10.43 9.97" width="288" height="288"><path fill="#ffffff" d="M1687.71,675.3v0Z" transform="translate(-1681.87 -671.08)" class="color010101 svgShape"></path><rect width="2.24" height="6.73" x=".13" y="3.24" fill="#ffffff" class="color010101 svgShape"></rect><path fill="#ffffff" d="M1683.12 673.41h0a1.17 1.17 0 111.28-1.17A1.16 1.16 0 011683.11 673.41zM1692.3 681.05h-2.23v-3.6c0-.9-.33-1.52-1.14-1.52a1.22 1.22 0 00-1.14.82 1.46 1.46 0 00-.08.54v3.76h-2.23s0-6.1 0-6.73h2.23v1a2.22 2.22 0 012-1.11c1.47 0 2.57 1 2.57 3z" transform="translate(-1681.87 -671.08)" class="color010101 svgShape"></path></svg></g></svg>