<svg id="SvgjsSvg1011" width="288" height="288" xmlns="http://www.w3.org/2000/svg" version="1.1" xmlns:xlink="http://www.w3.org/1999/xlink" xmlns:svgjs="http://svgjs.com/svgjs"><defs id="SvgjsDefs1012"></defs><g id="SvgjsG1013"><svg xmlns="http://www.w3.org/2000/svg" data-name="Layer 1" viewBox="0 0 11.79 11.79" width="288" height="288"><path fill="#ffffff" d="M1641.6,780.43h-5a3.4,3.4,0,0,0-3.4,3.4v5a3.41,3.41,0,0,0,3.4,3.41h5a3.41,3.41,0,0,0,3.4-3.41v-5A3.4,3.4,0,0,0,1641.6,780.43Zm2.31,8.47a2.26,2.26,0,0,1-2.25,2.26h-5.1a2.26,2.26,0,0,1-2.26-2.26v-5.1a2.26,2.26,0,0,1,2.26-2.26h5.1a2.26,2.26,0,0,1,2.25,2.26Z" transform="translate(-1633.21 -780.43)" class="color010101 svgShape"></path><path fill="#ffffff" d="M1639.11 783.29a3.06 3.06 0 103.05 3.06A3.06 3.06 0 001639.11 783.29zm0 5a2 2 0 112-2A2 2 0 011639.11 788.33zM1642.27 782.46a.72.72 0 10.71.72A.72.72 0 001642.27 782.46z" transform="translate(-1633.21 -780.43)" class="color010101 svgShape"></path></svg></g></svg>