<svg id="SvgjsSvg1017" width="288" height="288" xmlns="http://www.w3.org/2000/svg" version="1.1" xmlns:xlink="http://www.w3.org/1999/xlink" xmlns:svgjs="http://svgjs.com/svgjs"><defs id="SvgjsDefs1018"></defs><g id="SvgjsG1019"><svg xmlns="http://www.w3.org/2000/svg" data-name="Layer 1" viewBox="0 0 11.49 9.34" width="288" height="288"><path d="M10.28,2.32v.3A6.68,6.68,0,0,1,3.61,9.31,6.74,6.74,0,0,1,0,8.25H.55a4.67,4.67,0,0,0,2.92-1A2.35,2.35,0,0,1,1.28,5.62h.44a2.57,2.57,0,0,0,.62-.08A2.36,2.36,0,0,1,.45,3.23h0a2.49,2.49,0,0,0,1.07.3A2.34,2.34,0,0,1,.79.39,6.63,6.63,0,0,0,5.63,2.84a2.33,2.33,0,0,1-.06-.53A2.36,2.36,0,0,1,9.64.7,4.43,4.43,0,0,0,11.13.13a2.36,2.36,0,0,1-1,1.3,4.83,4.83,0,0,0,1.35-.37A4.8,4.8,0,0,1,10.28,2.32Z" transform="translate(.01 .03)" fill="#ffffff" class="color000 svgShape"></path></svg></g></svg>